<?xml version="1.0" encoding="utf-8"?>
<!-- Generator: Adobe Illustrator 25.4.1, SVG Export Plug-In . SVG Version: 6.00 Build 0)  -->
<svg version="1.1" id="Слой_1" xmlns="http://www.w3.org/2000/svg" xmlns:xlink="http://www.w3.org/1999/xlink" x="0px" y="0px"
	 viewBox="0 0 956.6 252.7" style="enable-background:new 0 0 956.6 252.7;" xml:space="preserve">
<style type="text/css">
	.st0{fill:#5FA631;}
	.st1{opacity:0.4;fill:#5FA631;}
	.st2{opacity:0.6;fill:#5FA631;}
	.st3{opacity:0.8;fill:#5FA631;}
</style>
<g>
	<path class="st0" d="M57.5,117.6v37.7H38.3v-6.5c-3.8,4.8-9.9,7.4-17.9,7.4c-12.7,0-20.3-7.5-20.3-18.1c0-11,8-17.4,22.7-17.6h15.5
		v-0.6c0-5.5-3.8-8.7-11.3-8.7c-4.9,0-11.4,1.6-17.8,4.6l-5.4-12.9c9.3-4.1,17.9-6.3,27.7-6.3C47.9,96.6,57.4,104.3,57.5,117.6z
		 M38.3,135.7v-5H26.7c-5.5,0-8.2,1.9-8.2,6c0,4,3,6.5,8,6.5C32.3,143.2,37.1,140.1,38.3,135.7z"/>
	<path class="st0" d="M135.9,126.6c0,17.7-10.8,29.4-27.2,29.4c-7.6,0-13.7-2.9-17.9-8.1v28.3H71.3V97.3h19.5v7.5
		c4.2-5.2,10.1-8.1,17.5-8.1C124.8,96.7,135.9,108.6,135.9,126.6z M116.3,126.1c0-8.6-5.2-14.5-12.8-14.5c-7.5,0-12.6,5.9-12.6,14.5
		c0,8.6,5.2,14.4,12.6,14.4C111.1,140.5,116.3,134.7,116.3,126.1z"/>
	<path class="st0" d="M184.7,152.3c-4.3,2.5-10.2,3.9-16,3.9c-11.5,0.1-19.9-6.5-19.9-18.5v-24.9h-8.2v-12.6h8.2V84h19.4v16.1h15.4
		v12.6h-15.4v21.9c0,4.3,2,6.2,5.4,6.1c2,0,4.5-0.8,7.4-1.9L184.7,152.3z"/>
	<path class="st0" d="M249.8,131.4h-41.3c1.9,6.5,6.8,10.2,13.5,10.2c5.1,0,10-2,13.9-5.9l10.2,10c-6,6.6-14.9,10.3-25.9,10.3
		c-19.4,0-31.4-11.7-31.4-29.4c0-18,12.4-29.9,31-29.9C240.6,96.7,251.1,110.3,249.8,131.4z M230.9,121.2c0-6.6-4.4-11.1-11-11.1
		c-6.4,0-10.5,4.5-11.9,11.1H230.9z"/>
	<path class="st0" d="M286.1,133.4l-6,6.1v15.7h-19.5V75.8H280v41.1l19-19.6h22.2l-21.7,22.4l22.2,35.6h-23.1L286.1,133.4z"/>
	<path class="st0" d="M386.4,126.3c0,17.9-13,29.7-32.5,29.7c-19.5,0-32.4-11.8-32.4-29.7c0-17.8,12.8-29.6,32.4-29.6
		C373.5,96.7,386.4,108.5,386.4,126.3z M341.2,126.6c0,8.6,5.2,14.4,12.7,14.4c7.7,0,12.8-5.8,12.8-14.4c0-8.7-5.2-14.5-12.8-14.5
		C346.3,112.1,341.2,117.9,341.2,126.6z"/>
	<path class="st0" d="M457.2,118.8v36.5h-19.4v-31.1c0-6.5-4-10.6-10.1-10.6c-6.6,0.1-10.9,4.5-11.6,11v30.6h-19.5v-58H416v9.4
		c4.2-6.6,11-10.2,19.7-10.2C448.6,96.6,457.2,105.1,457.2,118.8z"/>
	<path class="st0" d="M490.5,75.8v79.5H471V75.8H490.5z"/>
	<path class="st0" d="M526.1,80.8c0,6-4.3,10.2-10.3,10.2c-6,0-10.3-4.2-10.3-10.2c0-6,4.3-10.2,10.3-10.2
		C521.8,70.7,526.1,74.8,526.1,80.8z M525.5,97.3v58H506v-58H525.5z"/>
	<path class="st0" d="M601.1,118.8v36.5h-19.4v-31.1c0-6.5-4-10.6-10.1-10.6c-6.6,0.1-10.9,4.5-11.6,11v30.6h-19.5v-58h19.5v9.4
		c4.2-6.6,11-10.2,19.7-10.2C592.6,96.6,601.1,105.1,601.1,118.8z"/>
	<path class="st0" d="M670.5,131.4h-41.3c1.9,6.5,6.8,10.2,13.5,10.2c5.1,0,10-2,13.9-5.9l10.2,10c-6,6.6-14.9,10.3-25.9,10.3
		c-19.4,0-31.4-11.7-31.4-29.4c0-18,12.4-29.9,31-29.9C661.3,96.7,671.8,110.3,670.5,131.4z M651.6,121.2c0-6.6-4.4-11.1-11-11.1
		c-6.4,0-10.5,4.5-11.9,11.1H651.6z"/>
</g>
<g>
	<g>
		<path class="st1" d="M933.5,84.8c-0.1,0-0.2,0-0.3,0c-3-0.1-6-0.3-9.1-0.5c-3.2-0.1-6.3-0.2-9.5-0.3c-0.6,0-1.2,0-1.7,0
			c-8,0-16.1,0.4-23.3,1.4c-2.5,0.3-4.8,0.7-7,1.2c-4.2,0.9-7.8,2-10.8,3.4c-0.2,0.3-0.3,0.6-0.5,0.8c-0.5,0.8-1,1.6-1.6,2.3
			c-0.3,0.4-0.6,0.8-0.9,1.1c-0.1,0.2-0.3,0.4-0.4,0.5c0,0.1-0.1,0.1-0.2,0.2c-0.3,0.1-0.6,0.3-0.9,0.4c-0.5,0.2-1,0.5-1.5,0.8
			c-0.1,0-0.3,0-0.4,0c0,0-0.1,0-0.2,0c-0.4,0-0.9-0.1-1.3-0.3c-0.2-0.1-0.4-0.2-0.6-0.3c-0.2-0.1-0.4-0.3-0.6-0.5
			c-0.3-0.3-0.5-0.6-0.7-1c-0.4-0.2-0.6-0.4-0.9-0.6c-0.7-0.7-1.1-1.6-1.1-2.6c0-0.2,0-0.4,0-0.5c0.3-0.4,0.6-0.9,0.8-1.4
			c0.1-0.3,0.3-0.5,0.4-0.9c0.2-0.2,0.5-0.4,0.7-0.6c0.3-0.3,0.7-0.6,1.1-0.9c0.7-0.6,1.5-1.1,2.3-1.6c0.3-0.2,0.5-0.4,0.8-0.5
			c1.4-3,2.5-6.7,3.4-10.8c0.5-2.3,0.9-4.6,1.2-7.1c1-7.3,1.4-15.4,1.4-23.4c0-0.1,0-0.1,0-0.2c0-5.6-0.2-11.3-0.6-16.9
			c-0.1-0.8-0.2-1.6-0.2-2.4c0-1,0.1-1.9,0.8-2.7c0.7-0.8,1.7-1.3,2.8-1.3c1.6,0,3.1,1.1,3.5,2.7c0.3,1,0.3,2.1,0.4,3.1
			c0.4,4.1,0.4,8.3,0.5,12.4c0.1,5.2,0.1,10.3-0.2,15.5c-0.1,1.6-0.2,3.2-0.3,4.7c-0.6,8.9-1.8,16.5-3.6,22.6
			c6.1-1.8,13.7-3,22.7-3.7c14.7-1,28.9-0.1,32.9,0.2c0.7,0,1.2,0.1,1.7,0.1c0.4,0.1,0.8,0.1,1.1,0.3c1.6,0.4,2.6,1.8,2.6,3.5
			C936.6,83,935.2,84.7,933.5,84.8z"/>
		<path class="st2" d="M946.5,98.4c-0.3,0-0.6,0-0.8-0.1c-1.2-0.2-2.5-0.6-3.7-0.9c-3.1-0.8-9.3-2.3-16.8-3.8
			c-0.3-0.1-0.5-0.1-0.8-0.2c-11.3-2.2-21.4-3.6-29.9-4.2c-10.1-0.7-18-0.2-23.1,1.6c-0.1,0-0.2,0-0.3,0.1c-0.4,0.8-0.8,1.5-1.3,2.2
			c-0.3,0.4-0.6,0.8-0.9,1.1c-0.1,0.2-0.3,0.4-0.4,0.5l-0.2,0.2c-0.3,0.1-0.6,0.3-0.9,0.4c-0.5,0.2-1,0.5-1.5,0.8
			c-0.2,0-0.4,0-0.6,0c-0.4,0-0.9-0.1-1.3-0.3c-0.2-0.1-0.4-0.2-0.6-0.3c-0.2-0.1-0.4-0.3-0.6-0.5c-0.3-0.3-0.5-0.6-0.7-1
			c-0.4-0.2-0.6-0.4-0.9-0.6c-0.7-0.7-1.1-1.6-1.1-2.6c0-0.2,0-0.4,0-0.5c0.3-0.4,0.6-0.9,0.8-1.4c0.1-0.3,0.3-0.5,0.4-0.9
			c0.2-0.2,0.5-0.4,0.7-0.6c0.3-0.3,0.7-0.6,1.1-0.8c0.7-0.5,1.4-0.9,2.2-1.3c0-0.1,0-0.2,0.1-0.3c1.7-5.1,2.2-13.1,1.6-23.2
			c-0.6-8.5-2-18.5-4.2-29.8c0-0.2-0.1-0.5-0.1-0.7c-1.1-5.6-2.4-11.2-3.8-16.7c-0.3-1.3-0.6-2.6-0.9-3.8c-0.5-2.2,1.1-4.4,3.5-4.4
			c1.7,0,3.1,1.1,3.5,2.7c0.2,0.4,0.3,0.8,0.4,1.4c0.2,0.6,0.4,1.3,0.5,2.1c0.8,3.3,2.4,9.9,4.1,18c0.9,4.3,1.6,8.5,2.2,12.4
			c0,0,0,0.1,0,0.2c2.7,17,3.1,30.2,1.4,39.4c9.1-1.8,22.3-1.3,39.2,1.3c4,0.6,8.3,1.4,12.8,2.3c8.1,1.6,14.8,3.2,18,4.1
			c2.6,0.6,6.2,1.1,6.3,4.5C950.1,96.9,948.4,98.3,946.5,98.4z"/>
		<path class="st3" d="M953.1,111.3c-0.5,0-1-0.1-1.5-0.3c-0.1,0-0.5-0.2-1.1-0.5c-7.1-2.9-16.1-6.3-25.8-9.4
			c-20.1-6.4-42.7-11.5-54.9-8.1c0,0,0,0-0.1,0c-0.5,0.1-0.9,0.3-1.4,0.4c-0.3,0.6-0.7,1.2-1,1.8c-0.5,0.2-1,0.5-1.4,0.8
			c0,0-0.1,0-0.1,0c-0.3,0.2-0.5,0.4-0.8,0.7c-1.2,1.2-2.8,1.5-4.2,0.8c-0.5-0.2-0.9-0.5-1.3-0.9c-1.5-1.5-1.5-4,0-5.5
			c0.3-0.3,0.5-0.6,0.8-0.9c0.3-0.4,0.6-0.9,0.8-1.4c0.5-0.4,1.1-0.7,1.7-1c0.1-0.4,0.3-0.9,0.4-1.3v0c3.4-12.2-1.7-34.9-8.1-55
			c-3.1-9.6-6.4-18.7-9.3-25.7c-0.3-0.6-0.4-1-0.5-1.1c-0.8-1.6-0.2-3.6,1.4-4.6c0.8-0.5,1.8-0.7,2.7-0.4c1,0.2,1.8,0.8,2.3,1.6
			c0.2,0.3,0.2,0.4,0.8,1.8c1.6,3.8,6,14.8,10.2,28.2c1.5,4.8,3,10,4.3,15.2c1.9,7.4,3.1,14.1,3.9,20.2c0.9,7.3,0.9,13.6,0,18.7
			c5.1-0.9,11.4-0.9,18.7,0c6,0.7,12.7,2,20.2,3.9c5.3,1.3,10.5,2.8,15.3,4.4c13.3,4.2,24.3,8.6,28.1,10.2c1.4,0.6,1.5,0.6,1.8,0.8
			c0.8,0.5,1.4,1.3,1.6,2.3c0.2,0.9,0,1.9-0.4,2.7C955.5,110.7,954.3,111.3,953.1,111.3z"/>
		<g>
			<path class="st0" d="M950.3,123.4c-0.1-0.1-2.4-1.4-2.9-1.7c-3.6-2-7.2-4-10.9-6c-3.4-1.8-6.9-3.6-10.4-5.3
				c-3.2-1.6-6.5-3.1-9.8-4.6c-3-1.4-6.1-2.7-9.2-3.9c-2.8-1.1-5.6-2.2-8.5-3.2c-2.5-0.9-5.1-1.7-7.7-2.4c-2.3-0.6-4.6-1.2-6.9-1.6
				c-2-0.4-4-0.7-6-0.8c-1.7-0.1-3.4-0.2-5.1,0c-2.5,0.2-5.1,0.8-7.1,2.4c-0.7,0.5-1.3,1.2-2.2,1.5c-2.9,1.1-5.9-2-5-4.8
				c0.3-0.9,1-1.6,1.6-2.3c1.3-1.6,1.9-3.6,2.2-5.6c0.2-1.6,0.3-3.2,0.2-4.8c-0.1-1.9-0.3-3.9-0.6-5.8c-0.4-2.2-0.8-4.5-1.4-6.6
				c-0.6-2.5-1.4-5-2.2-7.5c-0.9-2.8-1.9-5.5-2.9-8.2c-1.2-3-2.4-6-3.7-9c-1.4-3.2-2.9-6.4-4.4-9.6c-1.6-3.4-3.3-6.8-5.1-10.2
				c-1.9-3.6-3.8-7.2-5.8-10.8c-0.6-1.1-1.3-2.2-1.9-3.4c-0.3-0.5-1.6-2.8-1.7-2.9c-1.6-2.9,0.1-4.7,0.6-5.2
				c1.6-1.4,4.1-1.2,5.5,0.4c0.3,0.3,1,1.6,1.3,2.2l0.2,0.4c5.6,9.8,10.5,19.1,14.6,27.8c1.7,3.5,3.2,7,4.7,10.3
				c3.1,7.4,5.5,14,7.3,19.9c1.3,4.4,2.2,8.3,2.7,11.9c0.7,4.8,0.8,9,0.2,12.6c3.6-0.6,7.8-0.6,12.7,0.2c3.6,0.5,7.5,1.4,11.8,2.7
				c5.9,1.7,12.6,4.1,19.9,7.3c3.3,1.4,6.8,3,10.3,4.7c8.8,4.1,18.1,9,27.9,14.6l0.4,0.2c0.6,0.3,1.9,1,2.2,1.3
				c1.6,1.4,1.8,3.9,0.4,5.5C955,123.3,953.1,125,950.3,123.4z"/>
		</g>
	</g>
	<g>
		<path class="st1" d="M726.3,84.8c0.1,0,0.2,0,0.3,0c3-0.1,6-0.3,9.1-0.5c3.2-0.1,6.3-0.2,9.5-0.3c0.6,0,1.2,0,1.7,0
			c8,0,16.1,0.4,23.3,1.4c2.5,0.3,4.8,0.7,7,1.2c4.2,0.9,7.8,2,10.8,3.4c0.2,0.3,0.3,0.6,0.5,0.8c0.5,0.8,1,1.6,1.6,2.3
			c0.3,0.4,0.6,0.8,0.9,1.1c0.1,0.2,0.3,0.4,0.4,0.5c0,0.1,0.1,0.1,0.2,0.2c0.3,0.1,0.6,0.3,0.9,0.4c0.5,0.2,1,0.5,1.5,0.8
			c0.1,0,0.3,0,0.4,0c0,0,0.1,0,0.2,0c0.4,0,0.9-0.1,1.3-0.3c0.2-0.1,0.4-0.2,0.6-0.3c0.2-0.1,0.4-0.3,0.6-0.5
			c0.3-0.3,0.5-0.6,0.7-1c0.4-0.2,0.6-0.4,0.9-0.6c0.7-0.7,1.1-1.6,1.1-2.6c0-0.2,0-0.4,0-0.5c-0.3-0.4-0.6-0.9-0.8-1.4
			c-0.1-0.3-0.3-0.5-0.4-0.9c-0.2-0.2-0.5-0.4-0.7-0.6c-0.3-0.3-0.7-0.6-1.1-0.9c-0.7-0.6-1.5-1.1-2.3-1.6c-0.3-0.2-0.5-0.4-0.8-0.5
			c-1.4-3-2.5-6.7-3.4-10.8c-0.5-2.3-0.9-4.6-1.2-7.1c-1-7.3-1.4-15.4-1.4-23.4c0-0.1,0-0.1,0-0.2c0-5.6,0.2-11.3,0.6-16.9
			c0.1-0.8,0.2-1.6,0.2-2.4c0-1-0.1-1.9-0.8-2.7c-0.7-0.8-1.7-1.3-2.8-1.3c-1.6,0-3.1,1.1-3.5,2.7c-0.3,1-0.3,2.1-0.4,3.1
			c-0.4,4.1-0.4,8.3-0.5,12.4c-0.1,5.2-0.1,10.3,0.2,15.5c0.1,1.6,0.2,3.2,0.3,4.7c0.6,8.9,1.8,16.5,3.6,22.6
			c-6.1-1.8-13.7-3-22.7-3.7c-14.7-1-28.9-0.1-32.9,0.2c-0.7,0-1.2,0.1-1.7,0.1c-0.4,0.1-0.8,0.1-1.1,0.3c-1.6,0.4-2.6,1.8-2.6,3.5
			C723.2,83,724.6,84.7,726.3,84.8z"/>
		<path class="st2" d="M713.3,98.4c0.3,0,0.6,0,0.8-0.1c1.2-0.2,2.5-0.6,3.7-0.9c3.1-0.8,9.3-2.3,16.8-3.8c0.3-0.1,0.5-0.1,0.8-0.2
			c11.3-2.2,21.4-3.6,29.9-4.2c10.1-0.7,18-0.2,23.1,1.6c0.1,0,0.2,0,0.3,0.1c0.4,0.8,0.8,1.5,1.3,2.2c0.3,0.4,0.6,0.8,0.9,1.1
			c0.1,0.2,0.3,0.4,0.4,0.5l0.2,0.2c0.3,0.1,0.6,0.3,0.9,0.4c0.5,0.2,1,0.5,1.5,0.8c0.2,0,0.4,0,0.6,0c0.4,0,0.9-0.1,1.3-0.3
			c0.2-0.1,0.4-0.2,0.6-0.3c0.2-0.1,0.4-0.3,0.6-0.5c0.3-0.3,0.5-0.6,0.7-1c0.4-0.2,0.6-0.4,0.9-0.6c0.7-0.7,1.1-1.6,1.1-2.6
			c0-0.2,0-0.4,0-0.5c-0.3-0.4-0.6-0.9-0.8-1.4c-0.1-0.3-0.3-0.5-0.4-0.9c-0.2-0.2-0.5-0.4-0.7-0.6c-0.3-0.3-0.7-0.6-1.1-0.8
			c-0.7-0.5-1.4-0.9-2.2-1.3c0-0.1,0-0.2-0.1-0.3c-1.7-5.1-2.2-13.1-1.6-23.2c0.6-8.5,2-18.5,4.2-29.8c0-0.2,0.1-0.5,0.1-0.7
			c1.1-5.6,2.4-11.2,3.8-16.7c0.3-1.3,0.6-2.6,0.9-3.8c0.5-2.2-1.1-4.4-3.5-4.4c-1.7,0-3.1,1.1-3.5,2.7c-0.2,0.4-0.3,0.8-0.4,1.4
			c-0.2,0.6-0.4,1.3-0.5,2.1c-0.8,3.3-2.4,9.9-4.1,18c-0.9,4.3-1.6,8.5-2.2,12.4c0,0,0,0.1,0,0.2c-2.7,17-3.1,30.2-1.4,39.4
			c-9.1-1.8-22.3-1.3-39.2,1.3c-4,0.6-8.3,1.4-12.8,2.3c-8.1,1.6-14.8,3.2-18,4.1c-2.6,0.6-6.2,1.1-6.3,4.5
			C709.7,96.9,711.4,98.3,713.3,98.4z"/>
		<path class="st3" d="M706.7,111.3c0.5,0,1-0.1,1.5-0.3c0.1,0,0.5-0.2,1.1-0.5c7.1-2.9,16.1-6.3,25.8-9.4
			c20.1-6.4,42.7-11.5,54.9-8.1c0,0,0,0,0.1,0c0.5,0.1,0.9,0.3,1.4,0.4c0.3,0.6,0.7,1.2,1,1.8c0.5,0.2,1,0.5,1.4,0.8
			c0,0,0.1,0,0.1,0c0.3,0.2,0.5,0.4,0.8,0.7c1.2,1.2,2.8,1.5,4.2,0.8c0.5-0.2,0.9-0.5,1.3-0.9c1.5-1.5,1.5-4,0-5.5
			c-0.3-0.3-0.5-0.6-0.8-0.9c-0.3-0.4-0.6-0.9-0.8-1.4c-0.5-0.4-1.1-0.7-1.7-1c-0.1-0.4-0.3-0.9-0.4-1.3v0
			c-3.4-12.2,1.7-34.9,8.1-55C807.7,22.1,811,13,814,6c0.3-0.6,0.4-1,0.5-1.1c0.8-1.6,0.2-3.6-1.4-4.6c-0.8-0.5-1.8-0.7-2.7-0.4
			c-1,0.2-1.8,0.8-2.3,1.6c-0.2,0.3-0.2,0.4-0.8,1.8c-1.6,3.8-6,14.8-10.2,28.2c-1.5,4.8-3,10-4.3,15.2c-1.9,7.4-3.1,14.1-3.9,20.2
			c-0.9,7.3-0.9,13.6,0,18.7c-5.1-0.9-11.4-0.9-18.7,0c-6,0.7-12.7,2-20.2,3.9c-5.3,1.3-10.5,2.8-15.3,4.4
			c-13.3,4.2-24.3,8.6-28.1,10.2c-1.4,0.6-1.5,0.6-1.8,0.8c-0.8,0.5-1.4,1.3-1.6,2.3c-0.2,0.9,0,1.9,0.4,2.7
			C704.3,110.7,705.5,111.3,706.7,111.3z"/>
		<g>
			<path class="st0" d="M709.5,123.4c0.1-0.1,2.4-1.4,2.9-1.7c3.6-2,7.2-4,10.9-6c3.4-1.8,6.9-3.6,10.4-5.3c3.2-1.6,6.5-3.1,9.8-4.6
				c3-1.4,6.1-2.7,9.2-3.9c2.8-1.1,5.6-2.2,8.5-3.2c2.5-0.9,5.1-1.7,7.7-2.4c2.3-0.6,4.6-1.2,6.9-1.6c2-0.4,4-0.7,6-0.8
				c1.7-0.1,3.4-0.2,5.1,0c2.5,0.2,5.1,0.8,7.1,2.4c0.7,0.5,1.3,1.2,2.2,1.5c2.9,1.1,5.9-2,5-4.8c-0.3-0.9-1-1.6-1.6-2.3
				c-1.3-1.6-1.9-3.6-2.2-5.6c-0.2-1.6-0.3-3.2-0.2-4.8c0.1-1.9,0.3-3.9,0.6-5.8c0.4-2.2,0.8-4.5,1.4-6.6c0.6-2.5,1.4-5,2.2-7.5
				c0.9-2.8,1.9-5.5,2.9-8.2c1.2-3,2.4-6,3.7-9c1.4-3.2,2.9-6.4,4.4-9.6c1.6-3.4,3.3-6.8,5.1-10.2c1.9-3.6,3.8-7.2,5.8-10.8
				c0.6-1.1,1.3-2.2,1.9-3.4c0.3-0.5,1.6-2.8,1.7-2.9c1.6-2.9-0.1-4.7-0.6-5.2c-1.6-1.4-4.1-1.2-5.5,0.4c-0.3,0.3-1,1.6-1.3,2.2
				l-0.2,0.4c-5.6,9.8-10.5,19.1-14.6,27.8c-1.7,3.5-3.2,7-4.7,10.3c-3.1,7.4-5.5,14-7.3,19.9c-1.3,4.4-2.2,8.3-2.7,11.9
				c-0.7,4.8-0.8,9-0.2,12.6c-3.6-0.6-7.8-0.6-12.7,0.2c-3.6,0.5-7.5,1.4-11.8,2.7c-5.9,1.7-12.6,4.1-19.9,7.3
				c-3.3,1.4-6.8,3-10.3,4.7c-8.8,4.1-18.1,9-27.9,14.6l-0.4,0.2c-0.6,0.3-1.9,1-2.2,1.3c-1.6,1.4-1.8,3.9-0.4,5.5
				C704.8,123.3,706.7,125,709.5,123.4z"/>
		</g>
	</g>
	<g>
		<path class="st1" d="M726.3,168.2c0.1,0,0.2,0,0.3,0c3,0.1,6,0.3,9.1,0.5c3.2,0.1,6.3,0.2,9.5,0.3c0.6,0,1.2,0,1.7,0
			c8,0,16.1-0.4,23.3-1.4c2.5-0.3,4.8-0.7,7-1.2c4.2-0.9,7.8-2,10.8-3.4c0.2-0.3,0.3-0.6,0.5-0.8c0.5-0.8,1-1.6,1.6-2.3
			c0.3-0.4,0.6-0.8,0.9-1.1c0.1-0.2,0.3-0.4,0.4-0.5c0-0.1,0.1-0.1,0.2-0.2c0.3-0.1,0.6-0.3,0.9-0.4c0.5-0.2,1-0.5,1.5-0.8
			c0.1,0,0.3,0,0.4,0c0,0,0.1,0,0.2,0c0.4,0,0.9,0.1,1.3,0.3c0.2,0.1,0.4,0.2,0.6,0.3c0.2,0.1,0.4,0.3,0.6,0.5
			c0.3,0.3,0.5,0.6,0.7,1c0.4,0.2,0.6,0.4,0.9,0.6c0.7,0.7,1.1,1.6,1.1,2.6c0,0.2,0,0.4,0,0.5c-0.3,0.4-0.6,0.9-0.8,1.4
			c-0.1,0.3-0.3,0.5-0.4,0.9c-0.2,0.2-0.5,0.4-0.7,0.6c-0.3,0.3-0.7,0.6-1.1,0.9c-0.7,0.6-1.5,1.1-2.3,1.6c-0.3,0.2-0.5,0.4-0.8,0.5
			c-1.4,3-2.5,6.7-3.4,10.8c-0.5,2.3-0.9,4.6-1.2,7.1c-1,7.3-1.4,15.4-1.4,23.4c0,0.1,0,0.1,0,0.2c0,5.6,0.2,11.3,0.6,16.9
			c0.1,0.8,0.2,1.6,0.2,2.4c0,1-0.1,1.9-0.8,2.7c-0.7,0.8-1.7,1.3-2.8,1.3c-1.6,0-3.1-1.1-3.5-2.7c-0.3-1-0.3-2.1-0.4-3.1
			c-0.4-4.1-0.4-8.3-0.5-12.4c-0.1-5.2-0.1-10.3,0.2-15.5c0.1-1.6,0.2-3.2,0.3-4.7c0.6-8.9,1.8-16.5,3.6-22.6
			c-6.1,1.8-13.7,3-22.7,3.7c-14.7,1-28.9,0.1-32.9-0.2c-0.7,0-1.2-0.1-1.7-0.1c-0.4-0.1-0.8-0.1-1.1-0.3c-1.6-0.4-2.6-1.8-2.6-3.5
			C723.2,170,724.6,168.3,726.3,168.2z"/>
		<path class="st2" d="M713.3,154.6c0.3,0,0.6,0,0.8,0.1c1.2,0.2,2.5,0.6,3.7,0.9c3.1,0.8,9.3,2.3,16.8,3.8c0.3,0.1,0.5,0.1,0.8,0.2
			c11.3,2.2,21.4,3.6,29.9,4.2c10.1,0.7,18,0.2,23.1-1.6c0.1,0,0.2,0,0.3-0.1c0.4-0.8,0.8-1.5,1.3-2.2c0.3-0.4,0.6-0.8,0.9-1.1
			c0.1-0.2,0.3-0.4,0.4-0.5l0.2-0.2c0.3-0.1,0.6-0.3,0.9-0.4c0.5-0.2,1-0.5,1.5-0.8c0.2,0,0.4,0,0.6,0c0.4,0,0.9,0.1,1.3,0.3
			c0.2,0.1,0.4,0.2,0.6,0.3c0.2,0.1,0.4,0.3,0.6,0.5c0.3,0.3,0.5,0.6,0.7,1c0.4,0.2,0.6,0.4,0.9,0.6c0.7,0.7,1.1,1.6,1.1,2.6
			c0,0.2,0,0.4,0,0.5c-0.3,0.4-0.6,0.9-0.8,1.4c-0.1,0.3-0.3,0.5-0.4,0.9c-0.2,0.2-0.5,0.4-0.7,0.6c-0.3,0.3-0.7,0.6-1.1,0.8
			c-0.7,0.5-1.4,0.9-2.2,1.3c0,0.1,0,0.2-0.1,0.3c-1.7,5.1-2.2,13.1-1.6,23.2c0.6,8.5,2,18.5,4.2,29.8c0,0.2,0.1,0.5,0.1,0.7
			c1.1,5.6,2.4,11.2,3.8,16.7c0.3,1.3,0.6,2.6,0.9,3.8c0.5,2.2-1.1,4.4-3.5,4.4c-1.7,0-3.1-1.1-3.5-2.7c-0.2-0.4-0.3-0.8-0.4-1.4
			c-0.2-0.6-0.4-1.3-0.5-2.1c-0.8-3.3-2.4-9.9-4.1-18c-0.9-4.3-1.6-8.5-2.2-12.4c0,0,0-0.1,0-0.2c-2.7-17-3.1-30.2-1.4-39.4
			c-9.1,1.8-22.3,1.3-39.2-1.3c-4-0.6-8.3-1.4-12.8-2.3c-8.1-1.6-14.8-3.2-18-4.1c-2.6-0.6-6.2-1.1-6.3-4.5
			C709.7,156.1,711.4,154.7,713.3,154.6z"/>
		<path class="st3" d="M706.7,141.7c0.5,0,1,0.1,1.5,0.3c0.1,0,0.5,0.2,1.1,0.5c7.1,2.9,16.1,6.3,25.8,9.4
			c20.1,6.4,42.7,11.5,54.9,8.1c0,0,0,0,0.1,0c0.5-0.1,0.9-0.3,1.4-0.4c0.3-0.6,0.7-1.2,1-1.8c0.5-0.2,1-0.5,1.4-0.8
			c0,0,0.1,0,0.1,0c0.3-0.2,0.5-0.4,0.8-0.7c1.2-1.2,2.8-1.5,4.2-0.8c0.5,0.2,0.9,0.5,1.3,0.9c1.5,1.5,1.5,4,0,5.5
			c-0.3,0.3-0.5,0.6-0.8,0.9c-0.3,0.4-0.6,0.9-0.8,1.4c-0.5,0.4-1.1,0.7-1.7,1c-0.1,0.4-0.3,0.9-0.4,1.3v0
			c-3.4,12.2,1.7,34.9,8.1,55c3.1,9.6,6.4,18.7,9.3,25.7c0.3,0.6,0.4,1,0.5,1.1c0.8,1.6,0.2,3.6-1.4,4.6c-0.8,0.5-1.8,0.7-2.7,0.4
			c-1-0.2-1.8-0.8-2.3-1.6c-0.2-0.3-0.2-0.4-0.8-1.8c-1.6-3.8-6-14.8-10.2-28.2c-1.5-4.8-3-10-4.3-15.2c-1.9-7.4-3.1-14.1-3.9-20.2
			c-0.9-7.3-0.9-13.6,0-18.7c-5.1,0.9-11.4,0.9-18.7,0c-6-0.7-12.7-2-20.2-3.9c-5.3-1.3-10.5-2.8-15.3-4.4
			c-13.3-4.2-24.3-8.6-28.1-10.2c-1.4-0.6-1.5-0.6-1.8-0.8c-0.8-0.5-1.4-1.3-1.6-2.3c-0.2-0.9,0-1.9,0.4-2.7
			C704.3,142.3,705.5,141.7,706.7,141.7z"/>
		<g>
			<path class="st0" d="M709.5,129.6c0.1,0.1,2.4,1.4,2.9,1.7c3.6,2,7.2,4,10.9,6c3.4,1.8,6.9,3.6,10.4,5.3c3.2,1.6,6.5,3.1,9.8,4.6
				c3,1.4,6.1,2.7,9.2,3.9c2.8,1.1,5.6,2.2,8.5,3.2c2.5,0.9,5.1,1.7,7.7,2.4c2.3,0.6,4.6,1.2,6.9,1.6c2,0.4,4,0.7,6,0.8
				c1.7,0.1,3.4,0.2,5.1,0c2.5-0.2,5.1-0.8,7.1-2.4c0.7-0.5,1.3-1.2,2.2-1.5c2.9-1.1,5.9,2,5,4.8c-0.3,0.9-1,1.6-1.6,2.3
				c-1.3,1.6-1.9,3.6-2.2,5.6c-0.2,1.6-0.3,3.2-0.2,4.8c0.1,1.9,0.3,3.9,0.6,5.8c0.4,2.2,0.8,4.5,1.4,6.6c0.6,2.5,1.4,5,2.2,7.5
				c0.9,2.8,1.9,5.5,2.9,8.2c1.2,3,2.4,6,3.7,9c1.4,3.2,2.9,6.4,4.4,9.6c1.6,3.4,3.3,6.8,5.1,10.2c1.9,3.6,3.8,7.2,5.8,10.8
				c0.6,1.1,1.3,2.2,1.9,3.4c0.3,0.5,1.6,2.8,1.7,2.9c1.6,2.9-0.1,4.7-0.6,5.2c-1.6,1.4-4.1,1.2-5.5-0.4c-0.3-0.3-1-1.6-1.3-2.2
				l-0.2-0.4c-5.6-9.8-10.5-19.1-14.6-27.8c-1.7-3.5-3.2-7-4.7-10.3c-3.1-7.4-5.5-14-7.3-19.9c-1.3-4.4-2.2-8.3-2.7-11.9
				c-0.7-4.8-0.8-9-0.2-12.6c-3.6,0.6-7.8,0.6-12.7-0.2c-3.6-0.5-7.5-1.4-11.8-2.7c-5.9-1.7-12.6-4.1-19.9-7.3
				c-3.3-1.4-6.8-3-10.3-4.7c-8.8-4.1-18.1-9-27.9-14.6l-0.4-0.2c-0.6-0.3-1.9-1-2.2-1.3c-1.6-1.4-1.8-3.9-0.4-5.5
				C704.8,129.7,706.7,128,709.5,129.6z"/>
		</g>
	</g>
	<g>
		<path class="st1" d="M933.5,168.2c-0.1,0-0.2,0-0.3,0c-3,0.1-6,0.3-9.1,0.5c-3.2,0.1-6.3,0.2-9.5,0.3c-0.6,0-1.2,0-1.7,0
			c-8,0-16.1-0.4-23.3-1.4c-2.5-0.3-4.8-0.7-7-1.2c-4.2-0.9-7.8-2-10.8-3.4c-0.2-0.3-0.3-0.6-0.5-0.8c-0.5-0.8-1-1.6-1.6-2.3
			c-0.3-0.4-0.6-0.8-0.9-1.1c-0.1-0.2-0.3-0.4-0.4-0.5c0-0.1-0.1-0.1-0.2-0.2c-0.3-0.1-0.6-0.3-0.9-0.4c-0.5-0.2-1-0.5-1.5-0.8
			c-0.1,0-0.3,0-0.4,0c0,0-0.1,0-0.2,0c-0.4,0-0.9,0.1-1.3,0.3c-0.2,0.1-0.4,0.2-0.6,0.3c-0.2,0.1-0.4,0.3-0.6,0.5
			c-0.3,0.3-0.5,0.6-0.7,1c-0.4,0.2-0.6,0.4-0.9,0.6c-0.7,0.7-1.1,1.6-1.1,2.6c0,0.2,0,0.4,0,0.5c0.3,0.4,0.6,0.9,0.8,1.4
			c0.1,0.3,0.3,0.5,0.4,0.9c0.2,0.2,0.5,0.4,0.7,0.6c0.3,0.3,0.7,0.6,1.1,0.9c0.7,0.6,1.5,1.1,2.3,1.6c0.3,0.2,0.5,0.4,0.8,0.5
			c1.4,3,2.5,6.7,3.4,10.8c0.5,2.3,0.9,4.6,1.2,7.1c1,7.3,1.4,15.4,1.4,23.4c0,0.1,0,0.1,0,0.2c0,5.6-0.2,11.3-0.6,16.9
			c-0.1,0.8-0.2,1.6-0.2,2.4c0,1,0.1,1.9,0.8,2.7c0.7,0.8,1.7,1.3,2.8,1.3c1.6,0,3.1-1.1,3.5-2.7c0.3-1,0.3-2.1,0.4-3.1
			c0.4-4.1,0.4-8.3,0.5-12.4c0.1-5.2,0.1-10.3-0.2-15.5c-0.1-1.6-0.2-3.2-0.3-4.7c-0.6-8.9-1.8-16.5-3.6-22.6
			c6.1,1.8,13.7,3,22.7,3.7c14.7,1,28.9,0.1,32.9-0.2c0.7,0,1.2-0.1,1.7-0.1c0.4-0.1,0.8-0.1,1.1-0.3c1.6-0.4,2.6-1.8,2.6-3.5
			C936.6,170,935.2,168.3,933.5,168.2z"/>
		<path class="st2" d="M946.5,154.6c-0.3,0-0.6,0-0.8,0.1c-1.2,0.2-2.5,0.6-3.7,0.9c-3.1,0.8-9.3,2.3-16.8,3.8
			c-0.3,0.1-0.5,0.1-0.8,0.2c-11.3,2.2-21.4,3.6-29.9,4.2c-10.1,0.7-18,0.2-23.1-1.6c-0.1,0-0.2,0-0.3-0.1c-0.4-0.8-0.8-1.5-1.3-2.2
			c-0.3-0.4-0.6-0.8-0.9-1.1c-0.1-0.2-0.3-0.4-0.4-0.5l-0.2-0.2c-0.3-0.1-0.6-0.3-0.9-0.4c-0.5-0.2-1-0.5-1.5-0.8
			c-0.2,0-0.4,0-0.6,0c-0.4,0-0.9,0.1-1.3,0.3c-0.2,0.1-0.4,0.2-0.6,0.3c-0.2,0.1-0.4,0.3-0.6,0.5c-0.3,0.3-0.5,0.6-0.7,1
			c-0.4,0.2-0.6,0.4-0.9,0.6c-0.7,0.7-1.1,1.6-1.1,2.6c0,0.2,0,0.4,0,0.5c0.3,0.4,0.6,0.9,0.8,1.4c0.1,0.3,0.3,0.5,0.4,0.9
			c0.2,0.2,0.5,0.4,0.7,0.6c0.3,0.3,0.7,0.6,1.1,0.8c0.7,0.5,1.4,0.9,2.2,1.3c0,0.1,0,0.2,0.1,0.3c1.7,5.1,2.2,13.1,1.6,23.2
			c-0.6,8.5-2,18.5-4.2,29.8c0,0.2-0.1,0.5-0.1,0.7c-1.1,5.6-2.4,11.2-3.8,16.7c-0.3,1.3-0.6,2.6-0.9,3.8c-0.5,2.2,1.1,4.4,3.5,4.4
			c1.7,0,3.1-1.1,3.5-2.7c0.2-0.4,0.3-0.8,0.4-1.4c0.2-0.6,0.4-1.3,0.5-2.1c0.8-3.3,2.4-9.9,4.1-18c0.9-4.3,1.6-8.5,2.2-12.4
			c0,0,0-0.1,0-0.2c2.7-17,3.1-30.2,1.4-39.4c9.1,1.8,22.3,1.3,39.2-1.3c4-0.6,8.3-1.4,12.8-2.3c8.1-1.6,14.8-3.2,18-4.1
			c2.6-0.6,6.2-1.1,6.3-4.5C950.1,156.1,948.4,154.7,946.5,154.6z"/>
		<path class="st3" d="M953.1,141.7c-0.5,0-1,0.1-1.5,0.3c-0.1,0-0.5,0.2-1.1,0.5c-7.1,2.9-16.1,6.3-25.8,9.4
			c-20.1,6.4-42.7,11.5-54.9,8.1c0,0,0,0-0.1,0c-0.5-0.1-0.9-0.3-1.4-0.4c-0.3-0.6-0.7-1.2-1-1.8c-0.5-0.2-1-0.5-1.4-0.8
			c0,0-0.1,0-0.1,0c-0.3-0.2-0.5-0.4-0.8-0.7c-1.2-1.2-2.8-1.5-4.2-0.8c-0.5,0.2-0.9,0.5-1.3,0.9c-1.5,1.5-1.5,4,0,5.5
			c0.3,0.3,0.5,0.6,0.8,0.9c0.3,0.4,0.6,0.9,0.8,1.4c0.5,0.4,1.1,0.7,1.7,1c0.1,0.4,0.3,0.9,0.4,1.3v0c3.4,12.2-1.7,34.9-8.1,55
			c-3.1,9.6-6.4,18.7-9.3,25.7c-0.3,0.6-0.4,1-0.5,1.1c-0.8,1.6-0.2,3.6,1.4,4.6c0.8,0.5,1.8,0.7,2.7,0.4c1-0.2,1.8-0.8,2.3-1.6
			c0.2-0.3,0.2-0.4,0.8-1.8c1.6-3.8,6-14.8,10.2-28.2c1.5-4.8,3-10,4.3-15.2c1.9-7.4,3.1-14.1,3.9-20.2c0.9-7.3,0.9-13.6,0-18.7
			c5.1,0.9,11.4,0.9,18.7,0c6-0.7,12.7-2,20.2-3.9c5.3-1.3,10.5-2.8,15.3-4.4c13.3-4.2,24.3-8.6,28.1-10.2c1.4-0.6,1.5-0.6,1.8-0.8
			c0.8-0.5,1.4-1.3,1.6-2.3c0.2-0.9,0-1.9-0.4-2.7C955.5,142.3,954.3,141.7,953.1,141.7z"/>
		<g>
			<path class="st0" d="M950.3,129.6c-0.1,0.1-2.4,1.4-2.9,1.7c-3.6,2-7.2,4-10.9,6c-3.4,1.8-6.9,3.6-10.4,5.3
				c-3.2,1.6-6.5,3.1-9.8,4.6c-3,1.4-6.1,2.7-9.2,3.9c-2.8,1.1-5.6,2.2-8.5,3.2c-2.5,0.9-5.1,1.7-7.7,2.4c-2.3,0.6-4.6,1.2-6.9,1.6
				c-2,0.4-4,0.7-6,0.8c-1.7,0.1-3.4,0.2-5.1,0c-2.5-0.2-5.1-0.8-7.1-2.4c-0.7-0.5-1.3-1.2-2.2-1.5c-2.9-1.1-5.9,2-5,4.8
				c0.3,0.9,1,1.6,1.6,2.3c1.3,1.6,1.9,3.6,2.2,5.6c0.2,1.6,0.3,3.2,0.2,4.8c-0.1,1.9-0.3,3.9-0.6,5.8c-0.4,2.2-0.8,4.5-1.4,6.6
				c-0.6,2.5-1.4,5-2.2,7.5c-0.9,2.8-1.9,5.5-2.9,8.2c-1.2,3-2.4,6-3.7,9c-1.4,3.2-2.9,6.4-4.4,9.6c-1.6,3.4-3.3,6.8-5.1,10.2
				c-1.9,3.6-3.8,7.2-5.8,10.8c-0.6,1.1-1.3,2.2-1.9,3.4c-0.3,0.5-1.6,2.8-1.7,2.9c-1.6,2.9,0.1,4.7,0.6,5.2
				c1.6,1.4,4.1,1.2,5.5-0.4c0.3-0.3,1-1.6,1.3-2.2l0.2-0.4c5.6-9.8,10.5-19.1,14.6-27.8c1.7-3.5,3.2-7,4.7-10.3
				c3.1-7.4,5.5-14,7.3-19.9c1.3-4.4,2.2-8.3,2.7-11.9c0.7-4.8,0.8-9,0.2-12.6c3.6,0.6,7.8,0.6,12.7-0.2c3.6-0.5,7.5-1.4,11.8-2.7
				c5.9-1.7,12.6-4.1,19.9-7.3c3.3-1.4,6.8-3,10.3-4.7c8.8-4.1,18.1-9,27.9-14.6l0.4-0.2c0.6-0.3,1.9-1,2.2-1.3
				c1.6-1.4,1.8-3.9,0.4-5.5C955,129.7,953.1,128,950.3,129.6z"/>
		</g>
	</g>
</g>
</svg>
