<svg width="19" height="22" viewBox="0 0 19 22" fill="none" xmlns="http://www.w3.org/2000/svg">
<g id="Objects">
<g id="Group">
<g id="Group_2">
<path id="Vector" d="M18.4306 3.47366L18.3198 2.77619L17.6167 2.84224C16.2474 2.97086 14.8139 2.81727 13.4713 2.39801C12.1288 1.97877 10.8922 1.29835 9.89521 0.430323L9.40094 0L8.90666 0.430309C7.9096 1.29835 6.67294 1.97877 5.33039 2.39801C3.98779 2.81727 2.55433 2.97087 1.185 2.84224L0.481878 2.77619L0.37116 3.47366C0.232547 4.34688 0 6.25966 0 9.25891C0 12.8252 0.829647 15.502 2.53633 17.4422C4.02156 19.1306 5.91085 19.9789 7.57772 20.7274C8.10261 20.963 8.59838 21.1857 9.05486 21.422L9.40092 21.6011L9.74698 21.422C10.2034 21.1857 10.6992 20.9631 11.224 20.7274C12.8909 19.9789 14.7802 19.1306 16.2654 17.4422C17.9721 15.502 18.8017 12.8252 18.8017 9.25891C18.8017 6.2597 18.5692 4.34691 18.4306 3.47366ZM16.6766 13.699C16.32 14.7748 15.8158 15.674 15.135 16.4478C13.8655 17.891 12.2092 18.6348 10.6073 19.354C10.1888 19.542 9.78813 19.7219 9.40094 19.9112C9.01371 19.7219 8.61298 19.542 8.19438 19.354C6.59256 18.6348 4.93621 17.891 3.66669 16.4478C2.98598 15.674 2.48171 14.7748 2.12512 13.699C1.71395 12.4585 1.50548 10.9646 1.50548 9.25891C1.50548 6.9878 1.64132 5.37609 1.76343 4.38624C1.88945 4.39025 2.01525 4.39225 2.14128 4.39225C4.76659 4.39218 7.38253 3.52345 9.40091 1.97033C11.4193 3.52358 14.0349 4.39231 16.6604 4.39225C16.7862 4.39225 16.9125 4.39025 17.0383 4.38623C17.1604 5.37607 17.2963 6.98782 17.2963 9.25889C17.2963 10.9646 17.0878 12.4585 16.6766 13.699Z" fill="white"/>
<path id="Vector_2" d="M13.3347 9.88562V12.1014H10.5077V14.9284H8.29187V12.1014H5.46484V9.88562H8.29187V7.05859H10.5077V9.88562H13.3347Z" fill="white"/>
</g>
</g>
</g>
</svg>
